#!OML:ASF I:\salsa\salsa 7_09\Patient 1\Session 1\dancerfemale.ASF
:FULLY-SPECIFIED
:DEGREES
1917
root -10.4058 16.0834 1.84188 -701.657 423.432 11.8472
lowerback -0.334694 2.69157 -1.02859
upperback -6.06759 3.55313 -2.88146
thorax -5.98377 1.78591 -2.59775
lowerneck 0.383742 3.03016 -7.48338
upperneck 29.2072 3.71738 9.40769
head 8.63814 2.2943 4.86851
rclavicle -5.5902e-014 1.36664e-014
rhumerus -40.815 15.6771 -96.3914
rradius 77.5688
rwrist 1.82742
rhand -0.0585278 73.9476
rfingers 7.12502
rthumb 25.5343 45.6388
lclavicle -5.5902e-014 1.36664e-014
lhumerus 3.40695 26.4669 43.5171
lradius 92.6844
lwrist 20.0594
lhand -16.3026 41.4139
lfingers 7.12502
lthumb 9.90823 71.1607
rfemur 2.06955 -0.879836 11.8119
rtibia 32.4993
rfoot -3.84268 -9.0601
rtoes -18.4637
lfemur -22.8936 14.4528 -27.7307
ltibia 33.6716
lfoot -29.8584 21.7414
ltoes 19.9018
1918
root -10.5251 16.1344 1.88062 -703.636 421.152 9.40239
lowerback -0.96494 2.85813 -0.95538
upperback -5.88167 3.80198 -2.5449
thorax -5.43447 1.91623 -2.25069
lowerneck 0.219952 3.31591 -7.19907
upperneck 29.7408 4.25551 8.76235
head 8.84096 2.51053 4.65521
rclavicle -4.36177e-014 2.20651e-014
rhumerus -39.4287 16.8684 -96.4124
rradius 77.9939
rwrist 0.920404
rhand 0.527077 74.0357
rfingers 7.12502
rthumb 26.0951 45.8085
lclavicle -4.36177e-014 2.20651e-014
lhumerus 2.13043 27.4851 41.49
lradius 91.3627
lwrist 21.6041
lhand -12.776 42.846
lfingers 7.12502
lthumb 13.3091 72.401
rfemur 3.22522 0.247708 11.7815
rtibia 28.8069
rfoot -4.17583 -6.69615
rtoes -29.5632
lfemur -23.2655 13.7873 -26.6546
ltibia 33.6272
lfoot -30.5323 24.3005
ltoes 22.0269
1919
root -10.6466 16.18 1.92186 -705.467 419.037 7.18602
lowerback -1.43951 3.02022 -0.650047
upperback -5.65407 4.03728 -2.31206
thorax -4.91232 2.0256 -2.14473
lowerneck 0.041996 3.57626 -6.92454
upperneck 30.2552 4.71676 8.3169
head 9.04408 2.70666 4.51005
rclavicle -7.48797e-014 8.84592e-015
rhumerus -38.1973 17.9079 -96.6647
rradius 78.1998
rwrist 0.275771
rhand 0.124865 74.0145
rfingers 7.12502
rthumb 25.71 45.731
lclavicle -7.48797e-014 8.84592e-015
lhumerus 0.890089 28.4043 39.4701
lradius 90.2884
lwrist 22.9962
lhand -9.16897 44.439
lfingers 7.12502
lthumb 16.7838 73.7336
rfemur 4.09557 1.44608 12.0228
rtibia 25.5497
rfoot -5.08206 -4.57616
rtoes -34.5091
lfemur -23.5102 12.5818 -25.3284
ltibia 33.7441
lfoot -31.7855 26.9625
ltoes 24.6546
1920
root -10.8116 16.216 1.95893 -708.407 417.426 3.60503
lowerback -1.21361 3.1235 0.55991
upperback -5.62025 4.20021 -1.89907
thorax -4.94445 2.05822 -2.40554
lowerneck 0.0755267 3.76673 -6.53399
upperneck 30.6901 5.08398 7.79632
head 9.19975 2.86218 4.30302
rclavicle 1.57288e-013 2.08724e-014
rhumerus -37.2555 18.6822 -97.1293
rradius 78.3789
rwrist -0.232966
rhand -0.214006 73.2102
rfingers 7.12502
rthumb 25.3854 44.8802
lclavicle 1.57288e-013 2.08724e-014
lhumerus -0.367004 29.117 37.4515
lradius 89.4717
lwrist 24.4295
lhand -5.9736 46.2349
lfingers 7.12502
lthumb 19.8577 75.2404
rfemur 4.47971 2.77775 13.7369
rtibia 22.7774
rfoot -5.14567 -2.63282
rtoes -36.3042
lfemur -24.2601 11.1632 -22.8364
ltibia 34.3483
lfoot -33.1722 29.4626
ltoes 27.3664
1921
root -10.9174 16.221 2.01522 -710.963 415.726 1.22395
lowerback -1.10922 3.27753 1.38344
upperback -5.18605 4.41792 -1.57364
thorax -4.50317 2.1408 -2.51723
lowerneck 0.0595488 3.89766 -6.30392
upperneck 31.0667 5.38055 7.29581
head 9.34778 2.9679 4.12564
rclavicle -2.88921e-014 -1.55052e-014
rhumerus -36.6228 19.4284 -97.6224
rradius 78.9101
rwrist -0.804593
rhand -0.0402466 73.1995
rfingers 7.12502
rthumb 25.5518 44.8932
lclavicle -2.88921e-014 -1.55052e-014
lhumerus -1.62758 29.8212 35.7482
lradius 88.9286
lwrist 25.7749
lhand -3.08176 48.0987
lfingers 7.12502
lthumb 22.6355 76.7914
rfemur 5.79151 2.74948 14.5368
rtibia 20.3452
rfoot -5.19611 0.0548687
rtoes -37.2728
lfemur -24.196 11.0216 -20.9517
ltibia 35.5268
lfoot -34.4511 30.8458
ltoes 29.3895
1922
root -11.1176 16.2181 2.05518 -713.647 415.379 -1.82371
lowerback -0.182007 3.03976 2.05231
upperback -5.01736 4.14515 -0.856146
thorax -4.87345 1.98232 -2.19446
lowerneck -0.192245 3.96147 -6.38741
upperneck 31.4182 5.5665 7.00677
head 9.52165 3.00705 4.07707
rclavicle 3.17745e-014 6.16232e-015
rhumerus -36.0056 20.4094 -97.8103
rradius 79.4218
rwrist -1.53145
rhand 0.0953086 73.3251
rfingers 7.12502
rthumb 25.6817 45.0375
lclavicle 3.17745e-014 6.16232e-015
lhumerus -2.77977 30.5635 34.6179
lradius 88.6499
lwrist 26.9557
lhand -0.729172 49.8715
lfingers 7.12502
lthumb 24.8918 78.2708
rfemur 6.3841 1.75887 16.555
rtibia 18.3629
rfoot -4.85036 1.33919
rtoes -38.3837
lfemur -25.5665 11.7811 -18.5102
ltibia 37.2553
lfoot -33.5647 30.8056
ltoes 30.4192
1923
root -11.3153 16.2046 2.08487 -716.176 415.303 -4.6952
lowerback 0.748345 2.76203 2.761
upperback -4.78686 3.83744 -0.204545
thorax -5.17757 1.80557 -1.95046
lowerneck -0.468533 3.95857 -6.3912
upperneck 31.5758 5.64202 6.71781
head 9.63995 3.00168 3.99843
rclavicle -3.41413e-014 1.25234e-014
rhumerus -35.3734 21.5697 -97.9193
rradius 79.8977
rwrist -2.28259
rhand -0.115868 73.427
rfingers 7.12502
rthumb 25.4794 45.1104
lclavicle -3.41413e-014 1.25234e-014
lhumerus -3.78058 31.1785 33.692
lradius 88.5612
lwrist 27.9733
lhand 1.11145 51.0523
lfingers 7.12502
lthumb 26.6545 79.1957
rfemur 6.78416 -0.173468 18.4139
rtibia 16.8722
rfoot -4.60319 2.71274
rtoes -38.9625
lfemur -27.159 12.5912 -16.2156
ltibia 39.2074
lfoot -32.0863 30.3921
ltoes 31.3819
